<?xml version="1.0" encoding="UTF-8" standalone="no"?><svg xmlns="http://www.w3.org/2000/svg" xmlns:xlink="http://www.w3.org/1999/xlink" clip-rule="evenodd" stroke-miterlimit="4.00" viewBox="0 0 1024 768"><desc>SVG generated by Keynote</desc><defs></defs><g transform="matrix(1.00, 0.00, -0.00, -1.00, 0.0, 768.0)"><path d="M 0.0 768.0 L 1024.0 768.0 L 1024.0 0.0 L 0.0 0.0 Z M 0.0 768.0 " fill="#000000"></path><text xml:space="preserve" font-family="Helvetica-Light" font-size="67.2" fill="#FEFFFF" transform="matrix(1.00, 0.00, -0.00, -1.00, 176.0, 678.0)">W</text><text xml:space="preserve" font-family="Helvetica-Light" font-size="67.2" fill="#FEFFFF" transform="matrix(1.00, 0.00, -0.00, -1.00, 235.7, 678.0)">h</text><text xml:space="preserve" font-family="Helvetica-Light" font-size="67.2" fill="#FEFFFF" transform="matrix(1.00, 0.00, -0.00, -1.00, 273.1, 678.0)">a</text><text xml:space="preserve" font-family="Helvetica-Light" font-size="67.2" fill="#FEFFFF" transform="matrix(1.00, 0.00, -0.00, -1.00, 310.5, 678.0)">t</text><text xml:space="preserve" font-family="Helvetica-Light" font-size="67.2" fill="#FEFFFF" transform="matrix(1.00, 0.00, -0.00, -1.00, 329.1, 678.0)"> </text><text xml:space="preserve" font-family="Helvetica-Light" font-size="67.2" fill="#FEFFFF" transform="matrix(1.00, 0.00, -0.00, -1.00, 347.8, 678.0)">i</text><text xml:space="preserve" font-family="Helvetica-Light" font-size="67.2" fill="#FEFFFF" transform="matrix(1.00, 0.00, -0.00, -1.00, 362.7, 678.0)">s</text><text xml:space="preserve" font-family="Helvetica-Light" font-size="67.2" fill="#FEFFFF" transform="matrix(1.00, 0.00, -0.00, -1.00, 396.3, 678.0)"> </text><text xml:space="preserve" font-family="Helvetica-Light" font-size="67.2" fill="#FEFFFF" transform="matrix(1.00, 0.00, -0.00, -1.00, 415.0, 678.0)">t</text><text xml:space="preserve" font-family="Helvetica-Light" font-size="67.2" fill="#FEFFFF" transform="matrix(1.00, 0.00, -0.00, -1.00, 433.7, 678.0)">h</text><text xml:space="preserve" font-family="Helvetica-Light" font-size="67.2" fill="#FEFFFF" transform="matrix(1.00, 0.00, -0.00, -1.00, 471.1, 678.0)">e</text><text xml:space="preserve" font-family="Helvetica-Light" font-size="67.2" fill="#FEFFFF" transform="matrix(1.00, 0.00, -0.00, -1.00, 508.4, 678.0)"> </text><text xml:space="preserve" font-family="Helvetica-Light" font-size="67.2" fill="#FEFFFF" transform="matrix(1.00, 0.00, -0.00, -1.00, 527.1, 678.0)">L</text><text xml:space="preserve" font-family="Helvetica-Light" font-size="67.2" fill="#FEFFFF" transform="matrix(1.00, 0.00, -0.00, -1.00, 564.5, 678.0)">i</text><text xml:space="preserve" font-family="Helvetica-Light" font-size="67.2" fill="#FEFFFF" transform="matrix(1.00, 0.00, -0.00, -1.00, 579.4, 678.0)">n</text><text xml:space="preserve" font-family="Helvetica-Light" font-size="67.2" fill="#FEFFFF" transform="matrix(1.00, 0.00, -0.00, -1.00, 616.8, 678.0)">u</text><text xml:space="preserve" font-family="Helvetica-Light" font-size="67.2" fill="#FEFFFF" transform="matrix(1.00, 0.00, -0.00, -1.00, 654.1, 678.0)">x</text><text xml:space="preserve" font-family="Helvetica-Light" font-size="67.2" fill="#FEFFFF" transform="matrix(1.00, 0.00, -0.00, -1.00, 687.7, 678.0)"> </text><text xml:space="preserve" font-family="Helvetica-Light" font-size="67.2" fill="#FEFFFF" transform="matrix(1.00, 0.00, -0.00, -1.00, 706.4, 678.0)">U</text><text xml:space="preserve" font-family="Helvetica-Light" font-size="67.2" fill="#FEFFFF" transform="matrix(1.00, 0.00, -0.00, -1.00, 754.9, 678.0)">s</text><text xml:space="preserve" font-family="Helvetica-Light" font-size="67.2" fill="#FEFFFF" transform="matrix(1.00, 0.00, -0.00, -1.00, 788.5, 678.0)">e</text><text xml:space="preserve" font-family="Helvetica-Light" font-size="67.2" fill="#FEFFFF" transform="matrix(1.00, 0.00, -0.00, -1.00, 825.9, 678.0)">r</text><text xml:space="preserve" font-family="Helvetica-Light" font-size="67.2" fill="#FEFFFF" transform="matrix(1.00, 0.00, -0.00, -1.00, 848.3, 678.0)"> </text><text xml:space="preserve" font-family="Helvetica-Light" font-size="67.2" fill="#FEFFFF" transform="matrix(1.00, 0.00, -0.00, -1.00, 417.0, 598.0)">G</text><text xml:space="preserve" font-family="Helvetica-Light" font-size="67.2" fill="#FEFFFF" transform="matrix(1.00, 0.00, -0.00, -1.00, 469.3, 598.0)">r</text><text xml:space="preserve" font-family="Helvetica-Light" font-size="67.2" fill="#FEFFFF" transform="matrix(1.00, 0.00, -0.00, -1.00, 490.4, 598.0)">o</text><text xml:space="preserve" font-family="Helvetica-Light" font-size="67.2" fill="#FEFFFF" transform="matrix(1.00, 0.00, -0.00, -1.00, 527.8, 598.0)">u</text><text xml:space="preserve" font-family="Helvetica-Light" font-size="67.2" fill="#FEFFFF" transform="matrix(1.00, 0.00, -0.00, -1.00, 565.2, 598.0)">p</text><text xml:space="preserve" font-family="Helvetica-Light" font-size="25.7" fill="#FEFFFF" transform="matrix(1.00, 0.00, -0.00, -1.00, 79.0, 525.9)">•</text><text xml:space="preserve" font-family="Helvetica-Light" font-size="34.2" fill="#FEFFFF" transform="matrix(1.00, 0.00, -0.00, -1.00, 111.0, 523.0)">W</text><text xml:space="preserve" font-family="Helvetica-Light" font-size="34.2" fill="#FEFFFF" transform="matrix(1.00, 0.00, -0.00, -1.00, 140.8, 523.0)">e</text><text xml:space="preserve" font-family="Helvetica-Light" font-size="34.2" fill="#FEFFFF" transform="matrix(1.00, 0.00, -0.00, -1.00, 159.8, 523.0)"> </text><text xml:space="preserve" font-family="Helvetica-Light" font-size="34.2" fill="#FEFFFF" transform="matrix(1.00, 0.00, -0.00, -1.00, 169.3, 523.0)">a</text><text xml:space="preserve" font-family="Helvetica-Light" font-size="34.2" fill="#FEFFFF" transform="matrix(1.00, 0.00, -0.00, -1.00, 188.3, 523.0)">r</text><text xml:space="preserve" font-family="Helvetica-Light" font-size="34.2" fill="#FEFFFF" transform="matrix(1.00, 0.00, -0.00, -1.00, 199.1, 523.0)">e</text><text xml:space="preserve" font-family="Helvetica-Light" font-size="34.2" fill="#FEFFFF" transform="matrix(1.00, 0.00, -0.00, -1.00, 218.1, 523.0)"> </text><text xml:space="preserve" font-family="Helvetica-Light" font-size="34.2" fill="#FEFFFF" transform="matrix(1.00, 0.00, -0.00, -1.00, 227.6, 523.0)">a</text><text xml:space="preserve" font-family="Helvetica-Light" font-size="34.2" fill="#FEFFFF" transform="matrix(1.00, 0.00, -0.00, -1.00, 246.6, 523.0)"> </text><text xml:space="preserve" font-family="Helvetica-Light" font-size="34.2" fill="#FEFFFF" transform="matrix(1.00, 0.00, -0.00, -1.00, 256.1, 523.0)">g</text><text xml:space="preserve" font-family="Helvetica-Light" font-size="34.2" fill="#FEFFFF" transform="matrix(1.00, 0.00, -0.00, -1.00, 277.0, 523.0)">r</text><text xml:space="preserve" font-family="Helvetica-Light" font-size="34.2" fill="#FEFFFF" transform="matrix(1.00, 0.00, -0.00, -1.00, 287.8, 523.0)">o</text><text xml:space="preserve" font-family="Helvetica-Light" font-size="34.2" fill="#FEFFFF" transform="matrix(1.00, 0.00, -0.00, -1.00, 306.8, 523.0)">u</text><text xml:space="preserve" font-family="Helvetica-Light" font-size="34.2" fill="#FEFFFF" transform="matrix(1.00, 0.00, -0.00, -1.00, 325.8, 523.0)">p</text><text xml:space="preserve" font-family="Helvetica-Light" font-size="34.2" fill="#FEFFFF" transform="matrix(1.00, 0.00, -0.00, -1.00, 346.7, 523.0)"> </text><text xml:space="preserve" font-family="Helvetica-Light" font-size="34.2" fill="#FEFFFF" transform="matrix(1.00, 0.00, -0.00, -1.00, 356.2, 523.0)">o</text><text xml:space="preserve" font-family="Helvetica-Light" font-size="34.2" fill="#FEFFFF" transform="matrix(1.00, 0.00, -0.00, -1.00, 375.3, 523.0)">f</text><text xml:space="preserve" font-family="Helvetica-Light" font-size="34.2" fill="#FEFFFF" transform="matrix(1.00, 0.00, -0.00, -1.00, 384.8, 523.0)"> </text><text xml:space="preserve" font-family="Helvetica-Light" font-size="34.2" fill="#FEFFFF" transform="matrix(1.00, 0.00, -0.00, -1.00, 394.3, 523.0)">p</text><text xml:space="preserve" font-family="Helvetica-Light" font-size="34.2" fill="#FEFFFF" transform="matrix(1.00, 0.00, -0.00, -1.00, 415.2, 523.0)">e</text><text xml:space="preserve" font-family="Helvetica-Light" font-size="34.2" fill="#FEFFFF" transform="matrix(1.00, 0.00, -0.00, -1.00, 434.2, 523.0)">o</text><text xml:space="preserve" font-family="Helvetica-Light" font-size="34.2" fill="#FEFFFF" transform="matrix(1.00, 0.00, -0.00, -1.00, 453.2, 523.0)">p</text><text xml:space="preserve" font-family="Helvetica-Light" font-size="34.2" fill="#FEFFFF" transform="matrix(1.00, 0.00, -0.00, -1.00, 474.1, 523.0)">l</text><text xml:space="preserve" font-family="Helvetica-Light" font-size="34.2" fill="#FEFFFF" transform="matrix(1.00, 0.00, -0.00, -1.00, 481.7, 523.0)">e</text><text xml:space="preserve" font-family="Helvetica-Light" font-size="34.2" fill="#FEFFFF" transform="matrix(1.00, 0.00, -0.00, -1.00, 500.7, 523.0)"> </text><text xml:space="preserve" font-family="Helvetica-Light" font-size="34.2" fill="#FEFFFF" transform="matrix(1.00, 0.00, -0.00, -1.00, 510.2, 523.0)">d</text><text xml:space="preserve" font-family="Helvetica-Light" font-size="34.2" fill="#FEFFFF" transform="matrix(1.00, 0.00, -0.00, -1.00, 531.1, 523.0)">e</text><text xml:space="preserve" font-family="Helvetica-Light" font-size="34.2" fill="#FEFFFF" transform="matrix(1.00, 0.00, -0.00, -1.00, 550.1, 523.0)">d</text><text xml:space="preserve" font-family="Helvetica-Light" font-size="34.2" fill="#FEFFFF" transform="matrix(1.00, 0.00, -0.00, -1.00, 571.0, 523.0)">i</text><text xml:space="preserve" font-family="Helvetica-Light" font-size="34.2" fill="#FEFFFF" transform="matrix(1.00, 0.00, -0.00, -1.00, 578.6, 523.0)">c</text><text xml:space="preserve" font-family="Helvetica-Light" font-size="34.2" fill="#FEFFFF" transform="matrix(1.00, 0.00, -0.00, -1.00, 597.6, 523.0)">a</text><text xml:space="preserve" font-family="Helvetica-Light" font-size="34.2" fill="#FEFFFF" transform="matrix(1.00, 0.00, -0.00, -1.00, 616.6, 523.0)">t</text><text xml:space="preserve" font-family="Helvetica-Light" font-size="34.2" fill="#FEFFFF" transform="matrix(1.00, 0.00, -0.00, -1.00, 626.2, 523.0)">e</text><text xml:space="preserve" font-family="Helvetica-Light" font-size="34.2" fill="#FEFFFF" transform="matrix(1.00, 0.00, -0.00, -1.00, 645.2, 523.0)">d</text><text xml:space="preserve" font-family="Helvetica-Light" font-size="34.2" fill="#FEFFFF" transform="matrix(1.00, 0.00, -0.00, -1.00, 666.1, 523.0)"> </text><text xml:space="preserve" font-family="Helvetica-Light" font-size="34.2" fill="#FEFFFF" transform="matrix(1.00, 0.00, -0.00, -1.00, 675.6, 523.0)">t</text><text xml:space="preserve" font-family="Helvetica-Light" font-size="34.2" fill="#FEFFFF" transform="matrix(1.00, 0.00, -0.00, -1.00, 685.1, 523.0)">o</text><text xml:space="preserve" font-family="Helvetica-Light" font-size="34.2" fill="#FEFFFF" transform="matrix(1.00, 0.00, -0.00, -1.00, 704.1, 523.0)">:</text><text xml:space="preserve" font-family="Helvetica-Light" font-size="34.2" fill="#FEFFFF" transform="matrix(1.00, 0.00, -0.00, -1.00, 713.6, 523.0)"> </text><text xml:space="preserve" font-family="Helvetica-Light" font-size="25.7" fill="#FEFFFF" transform="matrix(1.00, 0.00, -0.00, -1.00, 79.0, 447.1)">•</text><text xml:space="preserve" font-family="Helvetica-Light" font-size="34.2" fill="#FEFFFF" transform="matrix(1.00, 0.00, -0.00, -1.00, 111.0, 444.0)">P</text><text xml:space="preserve" font-family="Helvetica-Light" font-size="34.2" fill="#FEFFFF" transform="matrix(1.00, 0.00, -0.00, -1.00, 131.9, 444.0)">r</text><text xml:space="preserve" font-family="Helvetica-Light" font-size="34.2" fill="#FEFFFF" transform="matrix(1.00, 0.00, -0.00, -1.00, 142.7, 444.0)">o</text><text xml:space="preserve" font-family="Helvetica-Light" font-size="34.2" fill="#FEFFFF" transform="matrix(1.00, 0.00, -0.00, -1.00, 161.7, 444.0)">m</text><text xml:space="preserve" font-family="Helvetica-Light" font-size="34.2" fill="#FEFFFF" transform="matrix(1.00, 0.00, -0.00, -1.00, 190.2, 444.0)">o</text><text xml:space="preserve" font-family="Helvetica-Light" font-size="34.2" fill="#FEFFFF" transform="matrix(1.00, 0.00, -0.00, -1.00, 209.2, 444.0)">t</text><text xml:space="preserve" font-family="Helvetica-Light" font-size="34.2" fill="#FEFFFF" transform="matrix(1.00, 0.00, -0.00, -1.00, 218.7, 444.0)">i</text><text xml:space="preserve" font-family="Helvetica-Light" font-size="34.2" fill="#FEFFFF" transform="matrix(1.00, 0.00, -0.00, -1.00, 226.3, 444.0)">n</text><text xml:space="preserve" font-family="Helvetica-Light" font-size="34.2" fill="#FEFFFF" transform="matrix(1.00, 0.00, -0.00, -1.00, 245.3, 444.0)">g</text><text xml:space="preserve" font-family="Helvetica-Light" font-size="34.2" fill="#FEFFFF" transform="matrix(1.00, 0.00, -0.00, -1.00, 266.2, 444.0)"> </text><text xml:space="preserve" font-family="Helvetica-Light" font-size="34.2" fill="#FEFFFF" transform="matrix(1.00, 0.00, -0.00, -1.00, 275.7, 444.0)">F</text><text xml:space="preserve" font-family="Helvetica-Light" font-size="34.2" fill="#FEFFFF" transform="matrix(1.00, 0.00, -0.00, -1.00, 294.7, 444.0)">O</text><text xml:space="preserve" font-family="Helvetica-Light" font-size="34.2" fill="#FEFFFF" transform="matrix(1.00, 0.00, -0.00, -1.00, 321.3, 444.0)">S</text><text xml:space="preserve" font-family="Helvetica-Light" font-size="34.2" fill="#FEFFFF" transform="matrix(1.00, 0.00, -0.00, -1.00, 342.2, 444.0)">S</text><text xml:space="preserve" font-family="Helvetica-Light" font-size="34.2" fill="#FEFFFF" transform="matrix(1.00, 0.00, -0.00, -1.00, 363.1, 444.0)"> </text><text xml:space="preserve" font-family="Helvetica-Light" font-size="34.2" fill="#FEFFFF" transform="matrix(1.00, 0.00, -0.00, -1.00, 372.6, 444.0)">(</text><text xml:space="preserve" font-family="Helvetica-Light" font-size="34.2" fill="#FEFFFF" transform="matrix(1.00, 0.00, -0.00, -1.00, 384.0, 444.0)">F</text><text xml:space="preserve" font-family="Helvetica-Light" font-size="34.2" fill="#FEFFFF" transform="matrix(1.00, 0.00, -0.00, -1.00, 403.0, 444.0)">r</text><text xml:space="preserve" font-family="Helvetica-Light" font-size="34.2" fill="#FEFFFF" transform="matrix(1.00, 0.00, -0.00, -1.00, 413.8, 444.0)">e</text><text xml:space="preserve" font-family="Helvetica-Light" font-size="34.2" fill="#FEFFFF" transform="matrix(1.00, 0.00, -0.00, -1.00, 432.8, 444.0)">e</text><text xml:space="preserve" font-family="Helvetica-Light" font-size="34.2" fill="#FEFFFF" transform="matrix(1.00, 0.00, -0.00, -1.00, 451.8, 444.0)"> </text><text xml:space="preserve" font-family="Helvetica-Light" font-size="34.2" fill="#FEFFFF" transform="matrix(1.00, 0.00, -0.00, -1.00, 461.3, 444.0)">a</text><text xml:space="preserve" font-family="Helvetica-Light" font-size="34.2" fill="#FEFFFF" transform="matrix(1.00, 0.00, -0.00, -1.00, 480.4, 444.0)">n</text><text xml:space="preserve" font-family="Helvetica-Light" font-size="34.2" fill="#FEFFFF" transform="matrix(1.00, 0.00, -0.00, -1.00, 499.4, 444.0)">d</text><text xml:space="preserve" font-family="Helvetica-Light" font-size="34.2" fill="#FEFFFF" transform="matrix(1.00, 0.00, -0.00, -1.00, 520.3, 444.0)"> </text><text xml:space="preserve" font-family="Helvetica-Light" font-size="34.2" fill="#FEFFFF" transform="matrix(1.00, 0.00, -0.00, -1.00, 529.8, 444.0)">O</text><text xml:space="preserve" font-family="Helvetica-Light" font-size="34.2" fill="#FEFFFF" transform="matrix(1.00, 0.00, -0.00, -1.00, 556.4, 444.0)">p</text><text xml:space="preserve" font-family="Helvetica-Light" font-size="34.2" fill="#FEFFFF" transform="matrix(1.00, 0.00, -0.00, -1.00, 577.3, 444.0)">e</text><text xml:space="preserve" font-family="Helvetica-Light" font-size="34.2" fill="#FEFFFF" transform="matrix(1.00, 0.00, -0.00, -1.00, 596.3, 444.0)">n</text><text xml:space="preserve" font-family="Helvetica-Light" font-size="34.2" fill="#FEFFFF" transform="matrix(1.00, 0.00, -0.00, -1.00, 615.3, 444.0)"> </text><text xml:space="preserve" font-family="Helvetica-Light" font-size="34.2" fill="#FEFFFF" transform="matrix(1.00, 0.00, -0.00, -1.00, 624.8, 444.0)">S</text><text xml:space="preserve" font-family="Helvetica-Light" font-size="34.2" fill="#FEFFFF" transform="matrix(1.00, 0.00, -0.00, -1.00, 645.7, 444.0)">o</text><text xml:space="preserve" font-family="Helvetica-Light" font-size="34.2" fill="#FEFFFF" transform="matrix(1.00, 0.00, -0.00, -1.00, 664.7, 444.0)">u</text><text xml:space="preserve" font-family="Helvetica-Light" font-size="34.2" fill="#FEFFFF" transform="matrix(1.00, 0.00, -0.00, -1.00, 683.7, 444.0)">r</text><text xml:space="preserve" font-family="Helvetica-Light" font-size="34.2" fill="#FEFFFF" transform="matrix(1.00, 0.00, -0.00, -1.00, 694.5, 444.0)">c</text><text xml:space="preserve" font-family="Helvetica-Light" font-size="34.2" fill="#FEFFFF" transform="matrix(1.00, 0.00, -0.00, -1.00, 713.5, 444.0)">e</text><text xml:space="preserve" font-family="Helvetica-Light" font-size="34.2" fill="#FEFFFF" transform="matrix(1.00, 0.00, -0.00, -1.00, 732.6, 444.0)"> </text><text xml:space="preserve" font-family="Helvetica-Light" font-size="34.2" fill="#FEFFFF" transform="matrix(1.00, 0.00, -0.00, -1.00, 742.1, 444.0)">S</text><text xml:space="preserve" font-family="Helvetica-Light" font-size="34.2" fill="#FEFFFF" transform="matrix(1.00, 0.00, -0.00, -1.00, 763.0, 444.0)">o</text><text xml:space="preserve" font-family="Helvetica-Light" font-size="34.2" fill="#FEFFFF" transform="matrix(1.00, 0.00, -0.00, -1.00, 782.0, 444.0)">f</text><text xml:space="preserve" font-family="Helvetica-Light" font-size="34.2" fill="#FEFFFF" transform="matrix(1.00, 0.00, -0.00, -1.00, 791.5, 444.0)">t</text><text xml:space="preserve" font-family="Helvetica-Light" font-size="34.2" fill="#FEFFFF" transform="matrix(1.00, 0.00, -0.00, -1.00, 801.0, 444.0)">w</text><text xml:space="preserve" font-family="Helvetica-Light" font-size="34.2" fill="#FEFFFF" transform="matrix(1.00, 0.00, -0.00, -1.00, 825.7, 444.0)">a</text><text xml:space="preserve" font-family="Helvetica-Light" font-size="34.2" fill="#FEFFFF" transform="matrix(1.00, 0.00, -0.00, -1.00, 844.7, 444.0)">r</text><text xml:space="preserve" font-family="Helvetica-Light" font-size="34.2" fill="#FEFFFF" transform="matrix(1.00, 0.00, -0.00, -1.00, 855.5, 444.0)">e</text><text xml:space="preserve" font-family="Helvetica-Light" font-size="34.2" fill="#FEFFFF" transform="matrix(1.00, 0.00, -0.00, -1.00, 874.5, 444.0)">)</text><text xml:space="preserve" font-family="Helvetica-Light" font-size="34.2" fill="#FEFFFF" transform="matrix(1.00, 0.00, -0.00, -1.00, 885.9, 444.0)"> </text><text xml:space="preserve" font-family="Helvetica-Light" font-size="34.2" fill="#FEFFFF" transform="matrix(1.00, 0.00, -0.00, -1.00, 111.0, 403.0)">a</text><text xml:space="preserve" font-family="Helvetica-Light" font-size="34.2" fill="#FEFFFF" transform="matrix(1.00, 0.00, -0.00, -1.00, 130.0, 403.0)">n</text><text xml:space="preserve" font-family="Helvetica-Light" font-size="34.2" fill="#FEFFFF" transform="matrix(1.00, 0.00, -0.00, -1.00, 149.0, 403.0)">d</text><text xml:space="preserve" font-family="Helvetica-Light" font-size="34.2" fill="#FEFFFF" transform="matrix(1.00, 0.00, -0.00, -1.00, 169.9, 403.0)"> </text><text xml:space="preserve" font-family="Helvetica-Light" font-size="34.2" fill="#FEFFFF" transform="matrix(1.00, 0.00, -0.00, -1.00, 179.4, 403.0)">c</text><text xml:space="preserve" font-family="Helvetica-Light" font-size="34.2" fill="#FEFFFF" transform="matrix(1.00, 0.00, -0.00, -1.00, 198.4, 403.0)">o</text><text xml:space="preserve" font-family="Helvetica-Light" font-size="34.2" fill="#FEFFFF" transform="matrix(1.00, 0.00, -0.00, -1.00, 217.5, 403.0)">n</text><text xml:space="preserve" font-family="Helvetica-Light" font-size="34.2" fill="#FEFFFF" transform="matrix(1.00, 0.00, -0.00, -1.00, 236.5, 403.0)">t</text><text xml:space="preserve" font-family="Helvetica-Light" font-size="34.2" fill="#FEFFFF" transform="matrix(1.00, 0.00, -0.00, -1.00, 246.0, 403.0)">r</text><text xml:space="preserve" font-family="Helvetica-Light" font-size="34.2" fill="#FEFFFF" transform="matrix(1.00, 0.00, -0.00, -1.00, 257.4, 403.0)">i</text><text xml:space="preserve" font-family="Helvetica-Light" font-size="34.2" fill="#FEFFFF" transform="matrix(1.00, 0.00, -0.00, -1.00, 265.0, 403.0)">b</text><text xml:space="preserve" font-family="Helvetica-Light" font-size="34.2" fill="#FEFFFF" transform="matrix(1.00, 0.00, -0.00, -1.00, 285.9, 403.0)">u</text><text xml:space="preserve" font-family="Helvetica-Light" font-size="34.2" fill="#FEFFFF" transform="matrix(1.00, 0.00, -0.00, -1.00, 304.9, 403.0)">t</text><text xml:space="preserve" font-family="Helvetica-Light" font-size="34.2" fill="#FEFFFF" transform="matrix(1.00, 0.00, -0.00, -1.00, 314.4, 403.0)">i</text><text xml:space="preserve" font-family="Helvetica-Light" font-size="34.2" fill="#FEFFFF" transform="matrix(1.00, 0.00, -0.00, -1.00, 322.0, 403.0)">o</text><text xml:space="preserve" font-family="Helvetica-Light" font-size="34.2" fill="#FEFFFF" transform="matrix(1.00, 0.00, -0.00, -1.00, 341.0, 403.0)">n</text><text xml:space="preserve" font-family="Helvetica-Light" font-size="34.2" fill="#FEFFFF" transform="matrix(1.00, 0.00, -0.00, -1.00, 360.0, 403.0)">s</text><text xml:space="preserve" font-family="Helvetica-Light" font-size="34.2" fill="#FEFFFF" transform="matrix(1.00, 0.00, -0.00, -1.00, 377.1, 403.0)"> </text><text xml:space="preserve" font-family="Helvetica-Light" font-size="34.2" fill="#FEFFFF" transform="matrix(1.00, 0.00, -0.00, -1.00, 386.6, 403.0)">t</text><text xml:space="preserve" font-family="Helvetica-Light" font-size="34.2" fill="#FEFFFF" transform="matrix(1.00, 0.00, -0.00, -1.00, 396.1, 403.0)">o</text><text xml:space="preserve" font-family="Helvetica-Light" font-size="34.2" fill="#FEFFFF" transform="matrix(1.00, 0.00, -0.00, -1.00, 415.1, 403.0)"> </text><text xml:space="preserve" font-family="Helvetica-Light" font-size="34.2" fill="#FEFFFF" transform="matrix(1.00, 0.00, -0.00, -1.00, 424.6, 403.0)">t</text><text xml:space="preserve" font-family="Helvetica-Light" font-size="34.2" fill="#FEFFFF" transform="matrix(1.00, 0.00, -0.00, -1.00, 434.2, 403.0)">h</text><text xml:space="preserve" font-family="Helvetica-Light" font-size="34.2" fill="#FEFFFF" transform="matrix(1.00, 0.00, -0.00, -1.00, 453.2, 403.0)">e</text><text xml:space="preserve" font-family="Helvetica-Light" font-size="34.2" fill="#FEFFFF" transform="matrix(1.00, 0.00, -0.00, -1.00, 472.2, 403.0)"> </text><text xml:space="preserve" font-family="Helvetica-Light" font-size="34.2" fill="#FEFFFF" transform="matrix(1.00, 0.00, -0.00, -1.00, 481.7, 403.0)">c</text><text xml:space="preserve" font-family="Helvetica-Light" font-size="34.2" fill="#FEFFFF" transform="matrix(1.00, 0.00, -0.00, -1.00, 500.7, 403.0)">o</text><text xml:space="preserve" font-family="Helvetica-Light" font-size="34.2" fill="#FEFFFF" transform="matrix(1.00, 0.00, -0.00, -1.00, 519.7, 403.0)">m</text><text xml:space="preserve" font-family="Helvetica-Light" font-size="34.2" fill="#FEFFFF" transform="matrix(1.00, 0.00, -0.00, -1.00, 548.2, 403.0)">m</text><text xml:space="preserve" font-family="Helvetica-Light" font-size="34.2" fill="#FEFFFF" transform="matrix(1.00, 0.00, -0.00, -1.00, 576.7, 403.0)">u</text><text xml:space="preserve" font-family="Helvetica-Light" font-size="34.2" fill="#FEFFFF" transform="matrix(1.00, 0.00, -0.00, -1.00, 595.7, 403.0)">n</text><text xml:space="preserve" font-family="Helvetica-Light" font-size="34.2" fill="#FEFFFF" transform="matrix(1.00, 0.00, -0.00, -1.00, 614.7, 403.0)">i</text><text xml:space="preserve" font-family="Helvetica-Light" font-size="34.2" fill="#FEFFFF" transform="matrix(1.00, 0.00, -0.00, -1.00, 622.3, 403.0)">t</text><text xml:space="preserve" font-family="Helvetica-Light" font-size="34.2" fill="#FEFFFF" transform="matrix(1.00, 0.00, -0.00, -1.00, 631.8, 403.0)">y</text><text xml:space="preserve" font-family="Helvetica-Light" font-size="34.2" fill="#FEFFFF" transform="matrix(1.00, 0.00, -0.00, -1.00, 648.9, 403.0)"> </text><text xml:space="preserve" font-family="Helvetica-Light" font-size="25.7" fill="#FEFFFF" transform="matrix(1.00, 0.00, -0.00, -1.00, 79.0, 327.3)">•</text><text xml:space="preserve" font-family="Helvetica-Light" font-size="34.2" fill="#FEFFFF" transform="matrix(1.00, 0.00, -0.00, -1.00, 111.0, 324.0)">P</text><text xml:space="preserve" font-family="Helvetica-Light" font-size="34.2" fill="#FEFFFF" transform="matrix(1.00, 0.00, -0.00, -1.00, 131.9, 324.0)">r</text><text xml:space="preserve" font-family="Helvetica-Light" font-size="34.2" fill="#FEFFFF" transform="matrix(1.00, 0.00, -0.00, -1.00, 142.7, 324.0)">o</text><text xml:space="preserve" font-family="Helvetica-Light" font-size="34.2" fill="#FEFFFF" transform="matrix(1.00, 0.00, -0.00, -1.00, 161.7, 324.0)">m</text><text xml:space="preserve" font-family="Helvetica-Light" font-size="34.2" fill="#FEFFFF" transform="matrix(1.00, 0.00, -0.00, -1.00, 190.2, 324.0)">o</text><text xml:space="preserve" font-family="Helvetica-Light" font-size="34.2" fill="#FEFFFF" transform="matrix(1.00, 0.00, -0.00, -1.00, 209.2, 324.0)">t</text><text xml:space="preserve" font-family="Helvetica-Light" font-size="34.2" fill="#FEFFFF" transform="matrix(1.00, 0.00, -0.00, -1.00, 218.7, 324.0)">i</text><text xml:space="preserve" font-family="Helvetica-Light" font-size="34.2" fill="#FEFFFF" transform="matrix(1.00, 0.00, -0.00, -1.00, 226.3, 324.0)">n</text><text xml:space="preserve" font-family="Helvetica-Light" font-size="34.2" fill="#FEFFFF" transform="matrix(1.00, 0.00, -0.00, -1.00, 245.3, 324.0)">g</text><text xml:space="preserve" font-family="Helvetica-Light" font-size="34.2" fill="#FEFFFF" transform="matrix(1.00, 0.00, -0.00, -1.00, 266.2, 324.0)"> </text><text xml:space="preserve" font-family="Helvetica-Light" font-size="34.2" fill="#FEFFFF" transform="matrix(1.00, 0.00, -0.00, -1.00, 275.7, 324.0)">c</text><text xml:space="preserve" font-family="Helvetica-Light" font-size="34.2" fill="#FEFFFF" transform="matrix(1.00, 0.00, -0.00, -1.00, 294.7, 324.0)">o</text><text xml:space="preserve" font-family="Helvetica-Light" font-size="34.2" fill="#FEFFFF" transform="matrix(1.00, 0.00, -0.00, -1.00, 313.7, 324.0)">l</text><text xml:space="preserve" font-family="Helvetica-Light" font-size="34.2" fill="#FEFFFF" transform="matrix(1.00, 0.00, -0.00, -1.00, 321.3, 324.0)">l</text><text xml:space="preserve" font-family="Helvetica-Light" font-size="34.2" fill="#FEFFFF" transform="matrix(1.00, 0.00, -0.00, -1.00, 328.9, 324.0)">a</text><text xml:space="preserve" font-family="Helvetica-Light" font-size="34.2" fill="#FEFFFF" transform="matrix(1.00, 0.00, -0.00, -1.00, 347.9, 324.0)">b</text><text xml:space="preserve" font-family="Helvetica-Light" font-size="34.2" fill="#FEFFFF" transform="matrix(1.00, 0.00, -0.00, -1.00, 368.8, 324.0)">o</text><text xml:space="preserve" font-family="Helvetica-Light" font-size="34.2" fill="#FEFFFF" transform="matrix(1.00, 0.00, -0.00, -1.00, 387.8, 324.0)">r</text><text xml:space="preserve" font-family="Helvetica-Light" font-size="34.2" fill="#FEFFFF" transform="matrix(1.00, 0.00, -0.00, -1.00, 399.2, 324.0)">a</text><text xml:space="preserve" font-family="Helvetica-Light" font-size="34.2" fill="#FEFFFF" transform="matrix(1.00, 0.00, -0.00, -1.00, 418.3, 324.0)">t</text><text xml:space="preserve" font-family="Helvetica-Light" font-size="34.2" fill="#FEFFFF" transform="matrix(1.00, 0.00, -0.00, -1.00, 427.8, 324.0)">i</text><text xml:space="preserve" font-family="Helvetica-Light" font-size="34.2" fill="#FEFFFF" transform="matrix(1.00, 0.00, -0.00, -1.00, 435.4, 324.0)">o</text><text xml:space="preserve" font-family="Helvetica-Light" font-size="34.2" fill="#FEFFFF" transform="matrix(1.00, 0.00, -0.00, -1.00, 454.4, 324.0)">n</text><text xml:space="preserve" font-family="Helvetica-Light" font-size="34.2" fill="#FEFFFF" transform="matrix(1.00, 0.00, -0.00, -1.00, 473.4, 324.0)"> </text><text xml:space="preserve" font-family="Helvetica-Light" font-size="25.7" fill="#FEFFFF" transform="matrix(1.00, 0.00, -0.00, -1.00, 79.0, 248.5)">•</text><text xml:space="preserve" font-family="Helvetica-Light" font-size="34.2" fill="#FEFFFF" transform="matrix(1.00, 0.00, -0.00, -1.00, 111.0, 245.0)">P</text><text xml:space="preserve" font-family="Helvetica-Light" font-size="34.2" fill="#FEFFFF" transform="matrix(1.00, 0.00, -0.00, -1.00, 131.9, 245.0)">r</text><text xml:space="preserve" font-family="Helvetica-Light" font-size="34.2" fill="#FEFFFF" transform="matrix(1.00, 0.00, -0.00, -1.00, 142.7, 245.0)">o</text><text xml:space="preserve" font-family="Helvetica-Light" font-size="34.2" fill="#FEFFFF" transform="matrix(1.00, 0.00, -0.00, -1.00, 161.7, 245.0)">m</text><text xml:space="preserve" font-family="Helvetica-Light" font-size="34.2" fill="#FEFFFF" transform="matrix(1.00, 0.00, -0.00, -1.00, 190.2, 245.0)">o</text><text xml:space="preserve" font-family="Helvetica-Light" font-size="34.2" fill="#FEFFFF" transform="matrix(1.00, 0.00, -0.00, -1.00, 209.2, 245.0)">t</text><text xml:space="preserve" font-family="Helvetica-Light" font-size="34.2" fill="#FEFFFF" transform="matrix(1.00, 0.00, -0.00, -1.00, 218.7, 245.0)">i</text><text xml:space="preserve" font-family="Helvetica-Light" font-size="34.2" fill="#FEFFFF" transform="matrix(1.00, 0.00, -0.00, -1.00, 226.3, 245.0)">n</text><text xml:space="preserve" font-family="Helvetica-Light" font-size="34.2" fill="#FEFFFF" transform="matrix(1.00, 0.00, -0.00, -1.00, 245.3, 245.0)">g</text><text xml:space="preserve" font-family="Helvetica-Light" font-size="34.2" fill="#FEFFFF" transform="matrix(1.00, 0.00, -0.00, -1.00, 266.2, 245.0)"> </text><text xml:space="preserve" font-family="Helvetica-Light" font-size="34.2" fill="#FEFFFF" transform="matrix(1.00, 0.00, -0.00, -1.00, 275.7, 245.0)">s</text><text xml:space="preserve" font-family="Helvetica-Light" font-size="34.2" fill="#FEFFFF" transform="matrix(1.00, 0.00, -0.00, -1.00, 292.8, 245.0)">p</text><text xml:space="preserve" font-family="Helvetica-Light" font-size="34.2" fill="#FEFFFF" transform="matrix(1.00, 0.00, -0.00, -1.00, 313.7, 245.0)">r</text><text xml:space="preserve" font-family="Helvetica-Light" font-size="34.2" fill="#FEFFFF" transform="matrix(1.00, 0.00, -0.00, -1.00, 324.5, 245.0)">e</text><text xml:space="preserve" font-family="Helvetica-Light" font-size="34.2" fill="#FEFFFF" transform="matrix(1.00, 0.00, -0.00, -1.00, 343.5, 245.0)">a</text><text xml:space="preserve" font-family="Helvetica-Light" font-size="34.2" fill="#FEFFFF" transform="matrix(1.00, 0.00, -0.00, -1.00, 362.5, 245.0)">d</text><text xml:space="preserve" font-family="Helvetica-Light" font-size="34.2" fill="#FEFFFF" transform="matrix(1.00, 0.00, -0.00, -1.00, 383.4, 245.0)"> </text><text xml:space="preserve" font-family="Helvetica-Light" font-size="34.2" fill="#FEFFFF" transform="matrix(1.00, 0.00, -0.00, -1.00, 392.9, 245.0)">o</text><text xml:space="preserve" font-family="Helvetica-Light" font-size="34.2" fill="#FEFFFF" transform="matrix(1.00, 0.00, -0.00, -1.00, 411.9, 245.0)">f</text><text xml:space="preserve" font-family="Helvetica-Light" font-size="34.2" fill="#FEFFFF" transform="matrix(1.00, 0.00, -0.00, -1.00, 421.4, 245.0)"> </text><text xml:space="preserve" font-family="Helvetica-Light" font-size="34.2" fill="#FEFFFF" transform="matrix(1.00, 0.00, -0.00, -1.00, 430.9, 245.0)">n</text><text xml:space="preserve" font-family="Helvetica-Light" font-size="34.2" fill="#FEFFFF" transform="matrix(1.00, 0.00, -0.00, -1.00, 450.0, 245.0)">e</text><text xml:space="preserve" font-family="Helvetica-Light" font-size="34.2" fill="#FEFFFF" transform="matrix(1.00, 0.00, -0.00, -1.00, 469.0, 245.0)">w</text><text xml:space="preserve" font-family="Helvetica-Light" font-size="34.2" fill="#FEFFFF" transform="matrix(1.00, 0.00, -0.00, -1.00, 493.7, 245.0)"> </text><text xml:space="preserve" font-family="Helvetica-Light" font-size="34.2" fill="#FEFFFF" transform="matrix(1.00, 0.00, -0.00, -1.00, 503.2, 245.0)">i</text><text xml:space="preserve" font-family="Helvetica-Light" font-size="34.2" fill="#FEFFFF" transform="matrix(1.00, 0.00, -0.00, -1.00, 510.8, 245.0)">d</text><text xml:space="preserve" font-family="Helvetica-Light" font-size="34.2" fill="#FEFFFF" transform="matrix(1.00, 0.00, -0.00, -1.00, 531.7, 245.0)">e</text><text xml:space="preserve" font-family="Helvetica-Light" font-size="34.2" fill="#FEFFFF" transform="matrix(1.00, 0.00, -0.00, -1.00, 550.7, 245.0)">a</text><text xml:space="preserve" font-family="Helvetica-Light" font-size="34.2" fill="#FEFFFF" transform="matrix(1.00, 0.00, -0.00, -1.00, 569.7, 245.0)">s</text><text xml:space="preserve" font-family="Helvetica-Light" font-size="34.2" fill="#FEFFFF" transform="matrix(1.00, 0.00, -0.00, -1.00, 586.8, 245.0)"> </text><text xml:space="preserve" font-family="Helvetica-Light" font-size="34.2" fill="#FEFFFF" transform="matrix(1.00, 0.00, -0.00, -1.00, 596.3, 245.0)">a</text><text xml:space="preserve" font-family="Helvetica-Light" font-size="34.2" fill="#FEFFFF" transform="matrix(1.00, 0.00, -0.00, -1.00, 615.3, 245.0)">n</text><text xml:space="preserve" font-family="Helvetica-Light" font-size="34.2" fill="#FEFFFF" transform="matrix(1.00, 0.00, -0.00, -1.00, 634.3, 245.0)">d</text><text xml:space="preserve" font-family="Helvetica-Light" font-size="34.2" fill="#FEFFFF" transform="matrix(1.00, 0.00, -0.00, -1.00, 655.2, 245.0)"> </text><text xml:space="preserve" font-family="Helvetica-Light" font-size="34.2" fill="#FEFFFF" transform="matrix(1.00, 0.00, -0.00, -1.00, 664.7, 245.0)">c</text><text xml:space="preserve" font-family="Helvetica-Light" font-size="34.2" fill="#FEFFFF" transform="matrix(1.00, 0.00, -0.00, -1.00, 683.7, 245.0)">o</text><text xml:space="preserve" font-family="Helvetica-Light" font-size="34.2" fill="#FEFFFF" transform="matrix(1.00, 0.00, -0.00, -1.00, 702.8, 245.0)">n</text><text xml:space="preserve" font-family="Helvetica-Light" font-size="34.2" fill="#FEFFFF" transform="matrix(1.00, 0.00, -0.00, -1.00, 721.8, 245.0)">c</text><text xml:space="preserve" font-family="Helvetica-Light" font-size="34.2" fill="#FEFFFF" transform="matrix(1.00, 0.00, -0.00, -1.00, 740.8, 245.0)">e</text><text xml:space="preserve" font-family="Helvetica-Light" font-size="34.2" fill="#FEFFFF" transform="matrix(1.00, 0.00, -0.00, -1.00, 759.8, 245.0)">p</text><text xml:space="preserve" font-family="Helvetica-Light" font-size="34.2" fill="#FEFFFF" transform="matrix(1.00, 0.00, -0.00, -1.00, 780.7, 245.0)">t</text><text xml:space="preserve" font-family="Helvetica-Light" font-size="34.2" fill="#FEFFFF" transform="matrix(1.00, 0.00, -0.00, -1.00, 790.2, 245.0)">s</text><text xml:space="preserve" font-family="Helvetica-Light" font-size="34.2" fill="#FEFFFF" transform="matrix(1.00, 0.00, -0.00, -1.00, 807.3, 245.0)"> </text><text xml:space="preserve" font-family="Helvetica-Light" font-size="34.2" fill="#FEFFFF" transform="matrix(1.00, 0.00, -0.00, -1.00, 816.8, 245.0)">t</text><text xml:space="preserve" font-family="Helvetica-Light" font-size="34.2" fill="#FEFFFF" transform="matrix(1.00, 0.00, -0.00, -1.00, 826.3, 245.0)">h</text><text xml:space="preserve" font-family="Helvetica-Light" font-size="34.2" fill="#FEFFFF" transform="matrix(1.00, 0.00, -0.00, -1.00, 845.3, 245.0)">r</text><text xml:space="preserve" font-family="Helvetica-Light" font-size="34.2" fill="#FEFFFF" transform="matrix(1.00, 0.00, -0.00, -1.00, 856.1, 245.0)">o</text><text xml:space="preserve" font-family="Helvetica-Light" font-size="34.2" fill="#FEFFFF" transform="matrix(1.00, 0.00, -0.00, -1.00, 875.1, 245.0)">u</text><text xml:space="preserve" font-family="Helvetica-Light" font-size="34.2" fill="#FEFFFF" transform="matrix(1.00, 0.00, -0.00, -1.00, 894.1, 245.0)">g</text><text xml:space="preserve" font-family="Helvetica-Light" font-size="34.2" fill="#FEFFFF" transform="matrix(1.00, 0.00, -0.00, -1.00, 915.0, 245.0)">h</text><text xml:space="preserve" font-family="Helvetica-Light" font-size="34.2" fill="#FEFFFF" transform="matrix(1.00, 0.00, -0.00, -1.00, 934.1, 245.0)"> </text><text xml:space="preserve" font-family="Helvetica-Light" font-size="34.2" fill="#FEFFFF" transform="matrix(1.00, 0.00, -0.00, -1.00, 111.0, 204.0)">o</text><text xml:space="preserve" font-family="Helvetica-Light" font-size="34.2" fill="#FEFFFF" transform="matrix(1.00, 0.00, -0.00, -1.00, 130.0, 204.0)">p</text><text xml:space="preserve" font-family="Helvetica-Light" font-size="34.2" fill="#FEFFFF" transform="matrix(1.00, 0.00, -0.00, -1.00, 150.9, 204.0)">e</text><text xml:space="preserve" font-family="Helvetica-Light" font-size="34.2" fill="#FEFFFF" transform="matrix(1.00, 0.00, -0.00, -1.00, 169.9, 204.0)">n</text><text xml:space="preserve" font-family="Helvetica-Light" font-size="34.2" fill="#FEFFFF" transform="matrix(1.00, 0.00, -0.00, -1.00, 188.9, 204.0)">n</text><text xml:space="preserve" font-family="Helvetica-Light" font-size="34.2" fill="#FEFFFF" transform="matrix(1.00, 0.00, -0.00, -1.00, 208.0, 204.0)">e</text><text xml:space="preserve" font-family="Helvetica-Light" font-size="34.2" fill="#FEFFFF" transform="matrix(1.00, 0.00, -0.00, -1.00, 227.0, 204.0)">s</text><text xml:space="preserve" font-family="Helvetica-Light" font-size="34.2" fill="#FEFFFF" transform="matrix(1.00, 0.00, -0.00, -1.00, 244.1, 204.0)">s</text><text xml:space="preserve" font-family="Helvetica-Light" font-size="34.2" fill="#FEFFFF" transform="matrix(1.00, 0.00, -0.00, -1.00, 261.2, 204.0)"> </text><text xml:space="preserve" font-family="Helvetica-Light" font-size="25.7" fill="#FEFFFF" transform="matrix(1.00, 0.00, -0.00, -1.00, 79.0, 128.7)">•</text><text xml:space="preserve" font-family="Helvetica-Light" font-size="34.2" fill="#FEFFFF" transform="matrix(1.00, 0.00, -0.00, -1.00, 111.0, 126.0)">E</text><text xml:space="preserve" font-family="Helvetica-Light" font-size="34.2" fill="#FEFFFF" transform="matrix(1.00, 0.00, -0.00, -1.00, 131.9, 126.0)">s</text><text xml:space="preserve" font-family="Helvetica-Light" font-size="34.2" fill="#FEFFFF" transform="matrix(1.00, 0.00, -0.00, -1.00, 149.0, 126.0)">t</text><text xml:space="preserve" font-family="Helvetica-Light" font-size="34.2" fill="#FEFFFF" transform="matrix(1.00, 0.00, -0.00, -1.00, 158.5, 126.0)">a</text><text xml:space="preserve" font-family="Helvetica-Light" font-size="34.2" fill="#FEFFFF" transform="matrix(1.00, 0.00, -0.00, -1.00, 177.5, 126.0)">b</text><text xml:space="preserve" font-family="Helvetica-Light" font-size="34.2" fill="#FEFFFF" transform="matrix(1.00, 0.00, -0.00, -1.00, 198.4, 126.0)">l</text><text xml:space="preserve" font-family="Helvetica-Light" font-size="34.2" fill="#FEFFFF" transform="matrix(1.00, 0.00, -0.00, -1.00, 206.0, 126.0)">i</text><text xml:space="preserve" font-family="Helvetica-Light" font-size="34.2" fill="#FEFFFF" transform="matrix(1.00, 0.00, -0.00, -1.00, 213.6, 126.0)">s</text><text xml:space="preserve" font-family="Helvetica-Light" font-size="34.2" fill="#FEFFFF" transform="matrix(1.00, 0.00, -0.00, -1.00, 230.7, 126.0)">h</text><text xml:space="preserve" font-family="Helvetica-Light" font-size="34.2" fill="#FEFFFF" transform="matrix(1.00, 0.00, -0.00, -1.00, 249.7, 126.0)"> </text><text xml:space="preserve" font-family="Helvetica-Light" font-size="34.2" fill="#FEFFFF" transform="matrix(1.00, 0.00, -0.00, -1.00, 259.2, 126.0)">a</text><text xml:space="preserve" font-family="Helvetica-Light" font-size="34.2" fill="#FEFFFF" transform="matrix(1.00, 0.00, -0.00, -1.00, 278.2, 126.0)"> </text><text xml:space="preserve" font-family="Helvetica-Light" font-size="34.2" fill="#FEFFFF" transform="matrix(1.00, 0.00, -0.00, -1.00, 287.7, 126.0)">m</text><text xml:space="preserve" font-family="Helvetica-Light" font-size="34.2" fill="#FEFFFF" transform="matrix(1.00, 0.00, -0.00, -1.00, 316.2, 126.0)">e</text><text xml:space="preserve" font-family="Helvetica-Light" font-size="34.2" fill="#FEFFFF" transform="matrix(1.00, 0.00, -0.00, -1.00, 335.2, 126.0)">a</text><text xml:space="preserve" font-family="Helvetica-Light" font-size="34.2" fill="#FEFFFF" transform="matrix(1.00, 0.00, -0.00, -1.00, 354.3, 126.0)">n</text><text xml:space="preserve" font-family="Helvetica-Light" font-size="34.2" fill="#FEFFFF" transform="matrix(1.00, 0.00, -0.00, -1.00, 373.3, 126.0)">i</text><text xml:space="preserve" font-family="Helvetica-Light" font-size="34.2" fill="#FEFFFF" transform="matrix(1.00, 0.00, -0.00, -1.00, 380.9, 126.0)">n</text><text xml:space="preserve" font-family="Helvetica-Light" font-size="34.2" fill="#FEFFFF" transform="matrix(1.00, 0.00, -0.00, -1.00, 399.9, 126.0)">g</text><text xml:space="preserve" font-family="Helvetica-Light" font-size="34.2" fill="#FEFFFF" transform="matrix(1.00, 0.00, -0.00, -1.00, 420.8, 126.0)">f</text><text xml:space="preserve" font-family="Helvetica-Light" font-size="34.2" fill="#FEFFFF" transform="matrix(1.00, 0.00, -0.00, -1.00, 430.3, 126.0)">u</text><text xml:space="preserve" font-family="Helvetica-Light" font-size="34.2" fill="#FEFFFF" transform="matrix(1.00, 0.00, -0.00, -1.00, 449.3, 126.0)">l</text><text xml:space="preserve" font-family="Helvetica-Light" font-size="34.2" fill="#FEFFFF" transform="matrix(1.00, 0.00, -0.00, -1.00, 456.9, 126.0)"> </text><text xml:space="preserve" font-family="Helvetica-Light" font-size="34.2" fill="#FEFFFF" transform="matrix(1.00, 0.00, -0.00, -1.00, 466.4, 126.0)">p</text><text xml:space="preserve" font-family="Helvetica-Light" font-size="34.2" fill="#FEFFFF" transform="matrix(1.00, 0.00, -0.00, -1.00, 487.3, 126.0)">r</text><text xml:space="preserve" font-family="Helvetica-Light" font-size="34.2" fill="#FEFFFF" transform="matrix(1.00, 0.00, -0.00, -1.00, 498.1, 126.0)">e</text><text xml:space="preserve" font-family="Helvetica-Light" font-size="34.2" fill="#FEFFFF" transform="matrix(1.00, 0.00, -0.00, -1.00, 517.1, 126.0)">s</text><text xml:space="preserve" font-family="Helvetica-Light" font-size="34.2" fill="#FEFFFF" transform="matrix(1.00, 0.00, -0.00, -1.00, 534.2, 126.0)">e</text><text xml:space="preserve" font-family="Helvetica-Light" font-size="34.2" fill="#FEFFFF" transform="matrix(1.00, 0.00, -0.00, -1.00, 553.2, 126.0)">n</text><text xml:space="preserve" font-family="Helvetica-Light" font-size="34.2" fill="#FEFFFF" transform="matrix(1.00, 0.00, -0.00, -1.00, 572.2, 126.0)">c</text><text xml:space="preserve" font-family="Helvetica-Light" font-size="34.2" fill="#FEFFFF" transform="matrix(1.00, 0.00, -0.00, -1.00, 591.2, 126.0)">e</text><text xml:space="preserve" font-family="Helvetica-Light" font-size="34.2" fill="#FEFFFF" transform="matrix(1.00, 0.00, -0.00, -1.00, 610.3, 126.0)"> </text><text xml:space="preserve" font-family="Helvetica-Light" font-size="34.2" fill="#FEFFFF" transform="matrix(1.00, 0.00, -0.00, -1.00, 619.8, 126.0)">i</text><text xml:space="preserve" font-family="Helvetica-Light" font-size="34.2" fill="#FEFFFF" transform="matrix(1.00, 0.00, -0.00, -1.00, 627.4, 126.0)">n</text><text xml:space="preserve" font-family="Helvetica-Light" font-size="34.2" fill="#FEFFFF" transform="matrix(1.00, 0.00, -0.00, -1.00, 646.4, 126.0)"> </text><text xml:space="preserve" font-family="Helvetica-Light" font-size="34.2" fill="#FEFFFF" transform="matrix(1.00, 0.00, -0.00, -1.00, 655.9, 126.0)">t</text><text xml:space="preserve" font-family="Helvetica-Light" font-size="34.2" fill="#FEFFFF" transform="matrix(1.00, 0.00, -0.00, -1.00, 665.4, 126.0)">h</text><text xml:space="preserve" font-family="Helvetica-Light" font-size="34.2" fill="#FEFFFF" transform="matrix(1.00, 0.00, -0.00, -1.00, 684.4, 126.0)">e</text><text xml:space="preserve" font-family="Helvetica-Light" font-size="34.2" fill="#FEFFFF" transform="matrix(1.00, 0.00, -0.00, -1.00, 703.4, 126.0)"> </text><text xml:space="preserve" font-family="Helvetica-Light" font-size="34.2" fill="#FEFFFF" transform="matrix(1.00, 0.00, -0.00, -1.00, 712.9, 126.0)">o</text><text xml:space="preserve" font-family="Helvetica-Light" font-size="34.2" fill="#FEFFFF" transform="matrix(1.00, 0.00, -0.00, -1.00, 731.9, 126.0)">p</text><text xml:space="preserve" font-family="Helvetica-Light" font-size="34.2" fill="#FEFFFF" transform="matrix(1.00, 0.00, -0.00, -1.00, 752.8, 126.0)">e</text><text xml:space="preserve" font-family="Helvetica-Light" font-size="34.2" fill="#FEFFFF" transform="matrix(1.00, 0.00, -0.00, -1.00, 771.8, 126.0)">n</text><text xml:space="preserve" font-family="Helvetica-Light" font-size="34.2" fill="#FEFFFF" transform="matrix(1.00, 0.00, -0.00, -1.00, 790.9, 126.0)">-</text><text xml:space="preserve" font-family="Helvetica-Light" font-size="34.2" fill="#FEFFFF" transform="matrix(1.00, 0.00, -0.00, -1.00, 802.3, 126.0)">s</text><text xml:space="preserve" font-family="Helvetica-Light" font-size="34.2" fill="#FEFFFF" transform="matrix(1.00, 0.00, -0.00, -1.00, 819.4, 126.0)">o</text><text xml:space="preserve" font-family="Helvetica-Light" font-size="34.2" fill="#FEFFFF" transform="matrix(1.00, 0.00, -0.00, -1.00, 838.4, 126.0)">u</text><text xml:space="preserve" font-family="Helvetica-Light" font-size="34.2" fill="#FEFFFF" transform="matrix(1.00, 0.00, -0.00, -1.00, 857.4, 126.0)">r</text><text xml:space="preserve" font-family="Helvetica-Light" font-size="34.2" fill="#FEFFFF" transform="matrix(1.00, 0.00, -0.00, -1.00, 868.2, 126.0)">c</text><text xml:space="preserve" font-family="Helvetica-Light" font-size="34.2" fill="#FEFFFF" transform="matrix(1.00, 0.00, -0.00, -1.00, 887.2, 126.0)">e</text><text xml:space="preserve" font-family="Helvetica-Light" font-size="34.2" fill="#FEFFFF" transform="matrix(1.00, 0.00, -0.00, -1.00, 906.2, 126.0)"> </text><text xml:space="preserve" font-family="Helvetica-Light" font-size="34.2" fill="#FEFFFF" transform="matrix(1.00, 0.00, -0.00, -1.00, 111.0, 85.0)">w</text><text xml:space="preserve" font-family="Helvetica-Light" font-size="34.2" fill="#FEFFFF" transform="matrix(1.00, 0.00, -0.00, -1.00, 135.7, 85.0)">o</text><text xml:space="preserve" font-family="Helvetica-Light" font-size="34.2" fill="#FEFFFF" transform="matrix(1.00, 0.00, -0.00, -1.00, 154.7, 85.0)">r</text><text xml:space="preserve" font-family="Helvetica-Light" font-size="34.2" fill="#FEFFFF" transform="matrix(1.00, 0.00, -0.00, -1.00, 166.1, 85.0)">l</text><text xml:space="preserve" font-family="Helvetica-Light" font-size="34.2" fill="#FEFFFF" transform="matrix(1.00, 0.00, -0.00, -1.00, 173.7, 85.0)">d</text></g></svg>